<?xml version="1.0" encoding="UTF-8" standalone="no"?>
<svg
   xmlns:dc="http://purl.org/dc/elements/1.1/"
   xmlns:cc="http://creativecommons.org/ns#"
   xmlns:rdf="http://www.w3.org/1999/02/22-rdf-syntax-ns#"
   xmlns:svg="http://www.w3.org/2000/svg"
   xmlns="http://www.w3.org/2000/svg"
   xmlns:sodipodi="http://sodipodi.sourceforge.net/DTD/sodipodi-0.dtd"
   xmlns:inkscape="http://www.inkscape.org/namespaces/inkscape"
   width="68.527084mm"
   height="68.527084mm"
   viewBox="0 0 68.527084 68.527084"
   version="1.1"
   id="svg849"
   inkscape:version="1.0.1 (3bc2e813f5, 2020-09-07)"
   sodipodi:docname="qr.svg">
  <defs
     id="defs843" />
  <sodipodi:namedview
     id="base"
     pagecolor="#ffffff"
     bordercolor="#666666"
     borderopacity="1.0"
     inkscape:pageopacity="0.0"
     inkscape:pageshadow="2"
     inkscape:zoom="1.979899"
     inkscape:cx="130.92443"
     inkscape:cy="118.87372"
     inkscape:document-units="mm"
     inkscape:current-layer="layer1"
     inkscape:document-rotation="0"
     showgrid="false"
     inkscape:pagecheckerboard="true"
     fit-margin-top="0"
     fit-margin-left="0"
     fit-margin-right="0"
     fit-margin-bottom="0"
     inkscape:window-width="2560"
     inkscape:window-height="1387"
     inkscape:window-x="5992"
     inkscape:window-y="-8"
     inkscape:window-maximized="1" />
  <metadata
     id="metadata846">
    <rdf:RDF>
      <cc:Work
         rdf:about="">
        <dc:format>image/svg+xml</dc:format>
        <dc:type
           rdf:resource="http://purl.org/dc/dcmitype/StillImage" />
        <dc:title></dc:title>
      </cc:Work>
    </rdf:RDF>
  </metadata>
  <g
     inkscape:label="Layer 1"
     inkscape:groupmode="layer"
     id="layer1"
     transform="translate(-17.14122,-104.8317)">
    <g
       id="g1426"
       transform="translate(-0.26698067,0.13421102)">
      <path
         style="stroke-width:0.264583"
         d="m 52.810361,145.92596 c 0.190995,-0.0764 0.419198,-0.067 0.507119,0.0209 0.08792,0.0879 -0.06835,0.15045 -0.347266,0.13896 -0.308226,-0.0127 -0.370919,-0.0754 -0.159853,-0.15985 z m 6.796484,-2.46509 c 0.26339,-0.29104 0.538422,-0.52917 0.611183,-0.52917 0.07276,0 -0.08321,0.23813 -0.346599,0.52917 -0.26339,0.29104 -0.538422,0.52916 -0.611182,0.52916 -0.07276,0 0.08321,-0.23812 0.346598,-0.52916 z m 1.211514,-4.38768 c 0.0127,-0.30822 0.07539,-0.37092 0.159851,-0.15985 0.07643,0.191 0.06703,0.4192 -0.02088,0.50712 -0.08792,0.0879 -0.150452,-0.0683 -0.138964,-0.34727 z m -1.112972,-4.27743 c -0.329107,-0.41964 -0.319749,-0.429 0.0999,-0.0999 0.44073,0.34564 0.580887,0.56291 0.363125,0.56291 -0.05494,0 -0.2633,-0.20836 -0.463021,-0.46302 z m -6.895026,-2.62813 c 0.190995,-0.0764 0.419198,-0.067 0.507119,0.0209 0.08792,0.0879 -0.06835,0.15046 -0.347266,0.13897 -0.308226,-0.0127 -0.370919,-0.0754 -0.159853,-0.15985 z"
         id="path1448" />
      <path
         style="stroke-width:0.264583"
         d="m 51.20941,145.91957 c 0.329117,-0.0633 0.805367,-0.0609 1.058333,0.005 0.252965,0.0662 -0.01633,0.118 -0.598398,0.11506 -0.582083,-0.003 -0.789053,-0.0571 -0.459935,-0.1204 z m 0,-13.75833 c 0.329117,-0.0633 0.805367,-0.0609 1.058333,0.005 0.252965,0.0662 -0.01633,0.11801 -0.598398,0.11507 -0.582083,-0.003 -0.789053,-0.0571 -0.459935,-0.12041 z"
         id="path1446" />
      <path
         style="stroke-width:0.264583"
         d="m 22.816922,167.46761 c -0.0734,-0.19128 -0.100537,-2.248 -0.06031,-4.57049 l 0.07315,-4.22271 h 4.497916 4.497917 v 4.49792 4.49791 l -4.43761,0.0726 c -3.474142,0.0568 -4.466584,-0.003 -4.571063,-0.2752 z m 8.876381,-4.29528 v -4.36563 h -4.365625 -4.365625 v 4.36563 4.36562 h 4.365625 4.365625 z m -8.876381,-43.85889 c -0.0734,-0.19127 -0.100537,-2.24799 -0.06031,-4.57049 l 0.07315,-4.22271 h 4.497916 4.497917 v 4.49792 4.49792 l -4.43761,0.0726 c -3.474142,0.0568 -4.466584,-0.003 -4.571063,-0.2752 z m 8.876381,-4.29528 v -4.36563 h -4.365625 -4.365625 v 4.36563 4.36562 h 4.365625 4.365625 z m 39.277786,4.29528 c -0.0734,-0.19127 -0.100537,-2.24799 -0.06031,-4.57049 l 0.07315,-4.22271 h 4.497917 4.497916 v 4.49792 4.49792 l -4.43761,0.0726 c -3.474141,0.0568 -4.466585,-0.003 -4.571063,-0.2752 z m 8.876382,-4.29528 v -4.36563 h -4.365625 -4.365625 v 4.36563 4.36562 h 4.365625 4.365625 z"
         id="path1444" />
      <path
         style="stroke-width:0.264583"
         d="m 52.793825,136.93564 c 0.181901,-0.0734 0.479557,-0.0734 0.661458,0 0.181901,0.0734 0.03307,0.13345 -0.330729,0.13345 -0.363802,0 -0.512631,-0.06 -0.330729,-0.13345 z"
         id="path1442" />
      <path
         style="stroke-width:0.264583"
         d="m 52.532326,143.8029 c 0.329118,-0.0633 0.805368,-0.0609 1.058334,0.005 0.252965,0.0662 -0.01633,0.118 -0.598398,0.11507 -0.582083,-0.003 -0.789054,-0.0571 -0.459936,-0.12041 z m -1.061418,-2.63393 c 0.181901,-0.0734 0.479557,-0.0734 0.661458,0 0.181901,0.0734 0.03307,0.13346 -0.330729,0.13346 -0.363802,0 -0.51263,-0.0601 -0.330729,-0.13346 z m 0.545703,-4.23884 c 0.190995,-0.0764 0.419198,-0.067 0.507119,0.0209 0.08792,0.0879 -0.06835,0.15046 -0.347266,0.13897 -0.308226,-0.0127 -0.370919,-0.0754 -0.159853,-0.15985 z m 1.972874,-0.003 c 0.257431,-0.0671 0.614619,-0.0627 0.79375,0.01 0.17913,0.0725 -0.03149,0.12736 -0.468056,0.12197 -0.436563,-0.005 -0.583126,-0.0647 -0.325694,-0.13177 z m -1.460244,-2.64917 c 0.327422,-0.0631 0.863203,-0.0631 1.190625,0 0.327422,0.0631 0.05953,0.11466 -0.595312,0.11466 -0.654844,0 -0.922735,-0.0516 -0.595313,-0.11466 z"
         id="path1440" />
      <path
         style="stroke-width:0.264583"
         d="m 54.381325,143.02106 c 0.181901,-0.0734 0.479557,-0.0734 0.661458,0 0.181901,0.0734 0.03307,0.13345 -0.330729,0.13345 -0.363802,0 -0.512631,-0.0601 -0.330729,-0.13345 z m 0.281119,-7.94302 c 0.190995,-0.0764 0.419198,-0.067 0.507119,0.0209 0.08792,0.0879 -0.06835,0.15045 -0.347265,0.13896 -0.308227,-0.0127 -0.37092,-0.0754 -0.159854,-0.15985 z"
         id="path1438" />
      <path
         style="stroke-width:0.264583"
         d="m 53.058408,141.16897 c 0.181901,-0.0734 0.479557,-0.0734 0.661458,0 0.181901,0.0734 0.03307,0.13346 -0.330729,0.13346 -0.363802,0 -0.51263,-0.0601 -0.330729,-0.13346 z m 6.382395,-6.37321 c -0.329107,-0.41964 -0.319748,-0.429 0.0999,-0.0999 0.440729,0.34564 0.580887,0.56291 0.363124,0.56291 -0.05494,0 -0.2633,-0.20836 -0.463021,-0.46302 z"
         id="path1436" />
      <path
         style="stroke-width:0.264583"
         d="m 54.116741,141.16897 c 0.181901,-0.0734 0.479557,-0.0734 0.661459,0 0.181901,0.0734 0.03307,0.13346 -0.33073,0.13346 -0.363802,0 -0.51263,-0.0601 -0.330729,-0.13346 z"
         id="path1434" />
      <path
         style="stroke-width:0.264583"
         d="m 41.768358,139.07319 c 0.0127,-0.30822 0.07539,-0.37092 0.159853,-0.15985 0.07643,0.191 0.06703,0.4192 -0.02089,0.50712 -0.08792,0.0879 -0.150453,-0.0683 -0.138964,-0.34727 z"
         id="path1432" />
      <path
         style="stroke-width:0.264583"
         d="m 51.20941,145.65499 c 0.329117,-0.0633 0.805367,-0.0609 1.058333,0.005 0.252965,0.0662 -0.01633,0.11801 -0.598398,0.11507 -0.582083,-0.003 -0.789053,-0.0571 -0.459935,-0.12041 z m -1.127565,-4.31079 c -0.08994,-0.14552 -0.03743,-0.26458 0.116676,-0.26458 0.154109,0 0.280199,0.11906 0.280199,0.26458 0,0.14552 -0.0525,0.26458 -0.116676,0.26458 -0.06417,0 -0.190262,-0.11906 -0.280199,-0.26458 z m 9.128125,0.16469 c 0,-0.0549 0.20836,-0.2633 0.463021,-0.46302 0.419645,-0.32911 0.429004,-0.31975 0.0999,0.0999 -0.345643,0.44073 -0.562917,0.58089 -0.562917,0.36313 z m -9.098203,-4.71102 c 0.07641,-0.12364 0.249769,-0.1563 0.385236,-0.0726 0.346176,0.21395 0.307197,0.29738 -0.138935,0.29738 -0.211881,0 -0.322715,-0.10116 -0.246301,-0.2248 z m -6.644505,-1.53909 c 0.26339,-0.29104 0.538422,-0.52916 0.611182,-0.52916 0.07276,0 -0.08321,0.23812 -0.346599,0.52916 -0.263389,0.29105 -0.53842,0.52917 -0.611181,0.52917 -0.07276,0 0.08321,-0.23812 0.346598,-0.52917 z m 7.742148,-2.83296 c 0.329117,-0.0633 0.805367,-0.0609 1.058333,0.005 0.252965,0.0662 -0.01633,0.118 -0.598398,0.11506 -0.582083,-0.003 -0.789053,-0.0571 -0.459935,-0.1204 z"
         id="path1430" />
      <path
         style="stroke-width:0.264583"
         d="m 20.845387,163.17233 v -6.4823 h 6.482291 6.482292 v 6.4823 6.48229 h -6.482292 -6.482291 z m 11.1125,0 v -4.63021 H 27.327678 22.69747 v 4.63021 4.6302 h 4.630208 4.630209 z m -7.408334,0 v -2.77813 h 2.778125 2.778125 v 2.77813 2.77812 h -2.778125 -2.778125 z m 16.668751,5.55625 c 0,-0.88195 -0.0441,-0.92605 -0.926042,-0.92605 -0.881944,0 -0.926042,-0.0441 -0.926042,-0.92604 0,-0.92604 0,-0.92604 3.704167,-0.92604 3.704167,0 3.704167,0 3.704167,0.92604 0,0.92604 0,0.92604 -1.852084,0.92604 -1.852083,0 -1.852083,0 -1.852083,0.92605 0,0.88194 -0.0441,0.92604 -0.926042,0.92604 -0.881944,0 -0.926041,-0.0441 -0.926041,-0.92604 z m 7.408333,0 c 0,-0.88195 0.0441,-0.92605 0.926042,-0.92605 0.881943,0 0.926041,-0.0441 0.926041,-0.92604 0,-0.88194 -0.0441,-0.92604 -0.926041,-0.92604 -0.881944,0 -0.926042,-0.0441 -0.926042,-0.92604 0,-0.92604 0,-0.92604 1.852083,-0.92604 1.852084,0 1.852084,0 1.852084,-0.92604 0,-0.88195 -0.0441,-0.92605 -0.926042,-0.92605 -0.926042,0 -0.926042,0 -0.926042,-1.85208 0,-1.85208 0,-1.85208 0.926042,-1.85208 0.881944,0 0.926042,-0.0441 0.926042,-0.92604 0,-0.92605 0,-0.92605 -1.852084,-0.92605 -1.852083,0 -1.852083,0 -1.852083,0.92605 0,0.88194 -0.0441,0.92604 -0.926042,0.92604 -0.926041,0 -0.926041,0 -0.926041,2.77812 0,2.77813 0,2.77813 -0.926042,2.77813 -0.881944,0 -0.926042,-0.0441 -0.926042,-0.92604 0,-0.88195 -0.0441,-0.92605 -0.926041,-0.92605 -0.881945,0 -0.926042,0.0441 -0.926042,0.92605 0,0.92604 0,0.92604 -1.852083,0.92604 H 39.36622 v -2.77813 -2.77812 h -1.852083 -1.852083 v -2.77813 c 0,-2.77812 0,-2.77812 -0.926042,-2.77812 -0.881945,0 -0.926042,0.0441 -0.926042,0.92604 0,0.92604 0,0.92604 -2.778125,0.92604 -2.778125,0 -2.778125,0 -2.778125,-0.92604 0,-0.88194 -0.0441,-0.92604 -0.926042,-0.92604 -0.881944,0 -0.926041,0.0441 -0.926041,0.92604 0,0.88194 -0.0441,0.92604 -0.926042,0.92604 -0.881944,0 -0.926042,-0.0441 -0.926042,-0.92604 0,-0.88194 -0.0441,-0.92604 -0.926041,-0.92604 -0.881945,0 -0.926042,0.0441 -0.926042,0.92604 0,0.88194 -0.0441,0.92604 -0.926042,0.92604 -0.881944,0 -0.926041,-0.0441 -0.926041,-0.92604 0,-0.88194 0.0441,-0.92604 0.926041,-0.92604 0.881945,0 0.926042,-0.0441 0.926042,-0.92604 0,-0.92605 0,-0.92605 1.852083,-0.92605 1.852084,0 1.852084,0 1.852084,-0.92604 v -0.92604 h 5.55625 5.55625 v 0.92604 c 0,0.92604 0,0.92604 1.852083,0.92604 1.852084,0 1.852084,0 1.852084,-0.92604 0,-0.92604 0,-0.92604 1.852083,-0.92604 h 1.852083 v 1.85208 c 0,1.85209 0,1.85209 0.926042,1.85209 0.881944,0 0.926042,0.0441 0.926042,0.92604 0,0.88194 -0.0441,0.92604 -0.926042,0.92604 -0.926042,0 -0.926042,0 -0.926042,1.85208 0,1.85209 0,1.85209 0.926042,1.85209 0.881944,0 0.926042,-0.0441 0.926042,-0.92604 0,-0.88195 0.0441,-0.92605 0.926041,-0.92605 0.926042,0 0.926042,0 0.926042,-1.85208 v -1.85208 h 1.852083 c 1.852084,0 1.852084,0 1.852084,-0.92604 0,-0.88195 -0.0441,-0.92605 -0.926042,-0.92605 -0.881944,0 -0.926042,-0.0441 -0.926042,-0.92604 0,-0.92604 0,-0.92604 1.852084,-0.92604 h 1.852083 v 1.85208 1.85209 h 2.778125 c 2.778125,0 2.778125,0 2.778125,0.92604 0,0.92604 0,0.92604 -2.778125,0.92604 -2.778125,0 -2.778125,0 -2.778125,-0.92604 0,-0.88194 -0.0441,-0.92604 -0.926042,-0.92604 -0.926041,0 -0.926041,0 -0.926041,1.85208 0,1.85208 0,1.85208 0.926041,1.85208 0.881944,0 0.926042,0.0441 0.926042,0.92605 0,0.88194 0.0441,0.92604 0.926042,0.92604 0.881943,0 0.926041,0.0441 0.926041,0.92604 0,0.92604 0,0.92604 -1.852083,0.92604 -1.852083,0 -1.852083,0 -1.852083,0.92604 0,0.88195 0.0441,0.92604 0.926041,0.92604 0.881944,0 0.926042,0.0441 0.926042,0.92605 0,0.88194 0.0441,0.92604 0.926042,0.92604 0.881943,0 0.926041,-0.0441 0.926041,-0.92604 0,-0.92605 0,-0.92605 2.778125,-0.92605 2.778125,0 2.778125,0 2.778125,0.92605 0,0.88194 0.0441,0.92604 0.926042,0.92604 0.881944,0 0.926042,0.0441 0.926042,0.92604 0,0.88194 0.0441,0.92604 0.926041,0.92604 0.926042,0 0.926042,0 0.926042,-1.85208 0,-1.85209 0,-1.85209 -0.926042,-1.85209 -0.881943,0 -0.926041,-0.0441 -0.926041,-0.92604 0,-0.92604 0,-0.92604 -2.778125,-0.92604 -2.778125,0 -2.778125,0 -2.778125,-0.92604 0,-0.92604 0,-0.92604 1.852083,-0.92604 1.852083,0 1.852083,0 1.852083,-0.92604 0,-0.88195 0.0441,-0.92605 0.926042,-0.92605 0.926042,0 0.926042,0 0.926042,-2.77812 v -2.77813 H 61.59122 c -1.852083,0 -1.852083,0 -1.852083,-0.92604 0,-0.92604 0,-0.92604 1.852083,-0.92604 1.852084,0 1.852084,0 1.852084,0.92604 0,0.92604 0,0.92604 2.778125,0.92604 2.778125,0 2.778125,0 2.778125,-0.92604 0,-0.88194 -0.0441,-0.92604 -0.926042,-0.92604 -0.926042,0 -0.926042,0 -0.926042,-2.77812 v -2.77813 h 1.852084 c 1.852083,0 1.852083,0 1.852083,-0.92604 0,-0.92604 0,-0.92604 -1.852083,-0.92604 -1.852084,0 -1.852084,0 -1.852084,-0.92604 0,-0.88195 -0.0441,-0.92605 -0.926041,-0.92605 -0.881944,0 -0.926042,0.0441 -0.926042,0.92605 0,0.88194 -0.0441,0.92604 -0.926042,0.92604 -0.881943,0 -0.926041,0.0441 -0.926041,0.92604 0,0.88194 -0.0441,0.92604 -0.926042,0.92604 -0.926042,0 -0.926042,0 -0.926042,-1.85208 0,-1.85209 0,-1.85209 0.926042,-1.85209 0.881944,0 0.926042,-0.0441 0.926042,-0.92604 0,-0.88194 -0.0441,-0.92604 -0.926042,-0.92604 -0.881943,0 -0.926042,-0.0441 -0.926042,-0.92604 0,-0.88194 0.0441,-0.92604 0.926042,-0.92604 0.881944,0 0.926042,0.0441 0.926042,0.92604 0,0.92604 0,0.92604 1.852083,0.92604 1.852083,0 1.852083,0 1.852083,-0.92604 0,-0.88194 -0.0441,-0.92604 -0.926041,-0.92604 -0.926042,0 -0.926042,0 -0.926042,-1.85209 v -1.85208 H 63.443304 61.59122 v -1.85208 c 0,-1.85209 0,-1.85209 -0.926041,-1.85209 -0.881944,0 -0.926042,-0.0441 -0.926042,-0.92604 0,-0.92604 0,-0.92604 -1.852083,-0.92604 -1.852084,0 -1.852084,0 -1.852084,0.92604 0,0.92604 0,0.92604 -2.778125,0.92604 -2.778125,0 -2.778125,0 -2.778125,-0.92604 0,-0.92604 0,-0.92604 -1.852083,-0.92604 -1.852083,0 -1.852083,0 -1.852083,0.92604 0,0.92604 0,0.92604 -3.704167,0.92604 -3.704167,0 -3.704167,0 -3.704167,0.92605 0,0.88194 0.0441,0.92604 0.926042,0.92604 0.926042,0 0.926042,0 0.926042,3.70416 v 3.70417 H 39.36622 c -1.852083,0 -1.852083,0 -1.852083,0.92604 0,0.88195 0.0441,0.92604 0.926042,0.92604 0.881944,0 0.926041,0.0441 0.926041,0.92605 0,0.88194 0.0441,0.92604 0.926042,0.92604 0.881944,0 0.926042,0.0441 0.926042,0.92604 0,0.88194 -0.0441,0.92604 -0.926042,0.92604 -0.881944,0 -0.926042,0.0441 -0.926042,0.92604 0,0.88195 0.0441,0.92604 0.926042,0.92604 0.881944,0 0.926042,0.0441 0.926042,0.92605 0,0.88194 -0.0441,0.92604 -0.926042,0.92604 -0.881944,0 -0.926042,-0.0441 -0.926042,-0.92604 0,-0.88195 -0.0441,-0.92605 -0.926041,-0.92605 -0.881945,0 -0.926042,0.0441 -0.926042,0.92605 0,0.88194 -0.0441,0.92604 -0.926042,0.92604 -0.881944,0 -0.926041,-0.0441 -0.926041,-0.92604 0,-0.88195 -0.0441,-0.92605 -0.926042,-0.92605 -0.881945,0 -0.926042,0.0441 -0.926042,0.92605 0,0.88194 -0.0441,0.92604 -0.926042,0.92604 -0.881944,0 -0.926041,-0.0441 -0.926041,-0.92604 0,-0.88195 0.0441,-0.92605 0.926041,-0.92605 0.881945,0 0.926042,-0.0441 0.926042,-0.92604 0,-0.92604 0,-0.92604 -1.852083,-0.92604 h -1.852084 v -2.77812 c 0,-2.77813 0,-2.77813 -0.926041,-2.77813 -0.926042,0 -0.926042,0 -0.926042,1.85208 0,1.85209 0,1.85209 -0.926042,1.85209 -0.926041,0 -0.926041,0 -0.926041,-1.85209 0,-1.85208 0,-1.85208 -0.926042,-1.85208 -0.881944,0 -0.926042,0.0441 -0.926042,0.92604 0,0.88195 -0.0441,0.92604 -0.926041,0.92604 -0.881945,0 -0.926042,0.0441 -0.926042,0.92605 0,0.88194 0.0441,0.92604 0.926042,0.92604 0.881944,0 0.926041,0.0441 0.926041,0.92604 0,0.92604 0,0.92604 1.852084,0.92604 h 1.852083 v 1.85208 c 0,1.85209 0,1.85209 -0.926042,1.85209 -0.881944,0 -0.926041,-0.0441 -0.926041,-0.92604 0,-0.88195 -0.0441,-0.92605 -0.926042,-0.92605 -0.881944,0 -0.926042,0.0441 -0.926042,0.92605 0,0.88194 -0.0441,0.92604 -0.926041,0.92604 -0.881945,0 -0.926042,0.0441 -0.926042,0.92604 0,0.88194 -0.0441,0.92604 -0.926042,0.92604 -0.926041,0 -0.926041,0 -0.926041,-1.85208 v -1.85209 h 1.852083 c 1.852083,0 1.852083,0 1.852083,-0.92604 0,-0.88194 -0.0441,-0.92604 -0.926041,-0.92604 -0.881945,0 -0.926042,-0.0441 -0.926042,-0.92604 0,-0.88194 -0.0441,-0.92604 -0.926042,-0.92604 -0.926041,0 -0.926041,0 -0.926041,-3.70417 0,-3.70417 0,-3.70417 0.926041,-3.70417 0.881945,0 0.926042,0.0441 0.926042,0.92605 0,0.92604 0,0.92604 1.852083,0.92604 1.852084,0 1.852084,0 1.852084,0.92604 0,0.88194 0.0441,0.92604 0.926041,0.92604 0.881945,0 0.926042,-0.0441 0.926042,-0.92604 0,-0.88194 0.0441,-0.92604 0.926042,-0.92604 0.881944,0 0.926041,0.0441 0.926041,0.92604 0,0.92604 0,0.92604 1.852084,0.92604 1.852083,0 1.852083,0 1.852083,-0.92604 0,-0.88194 -0.0441,-0.92604 -0.926042,-0.92604 -0.881944,0 -0.926041,-0.0441 -0.926041,-0.92604 0,-0.92605 0,-0.92605 -2.778125,-0.92605 -2.778125,0 -2.778125,0 -2.778125,-0.92604 0,-0.92604 0,-0.92604 2.778125,-0.92604 2.778125,0 2.778125,0 2.778125,-0.92604 0,-0.92604 0,-0.92604 1.852083,-0.92604 h 1.852084 v 1.85208 c 0,1.85208 0,1.85208 -0.926042,1.85208 -0.881945,0 -0.926042,0.0441 -0.926042,0.92605 0,0.92604 0,0.92604 2.778125,0.92604 h 2.778125 v -1.85209 c 0,-1.85208 0,-1.85208 -0.926041,-1.85208 -0.926042,0 -0.926042,0 -0.926042,-1.85208 0,-1.85209 0,-1.85209 0.926042,-1.85209 0.881944,0 0.926041,-0.0441 0.926041,-0.92604 0,-0.88194 -0.0441,-0.92604 -0.926041,-0.92604 -0.881945,0 -0.926042,-0.0441 -0.926042,-0.92604 0,-0.92604 0,-0.92604 -2.778125,-0.92604 -2.778125,0 -2.778125,0 -2.778125,0.92604 0,0.92604 0,0.92604 1.852083,0.92604 1.852084,0 1.852084,0 1.852084,0.92604 0,0.92604 0,0.92604 -1.852084,0.92604 -1.852083,0 -1.852083,0 -1.852083,-0.92604 0,-0.88194 -0.0441,-0.92604 -0.926042,-0.92604 -0.926042,0 -0.926042,0 -0.926042,1.85208 0,1.85209 0,1.85209 -0.926041,1.85209 -0.926042,0 -0.926042,0 -0.926042,-1.85209 0,-1.85208 0,-1.85208 -0.926042,-1.85208 -0.881944,0 -0.926041,0.0441 -0.926041,0.92604 0,0.92604 0,0.92604 -2.778125,0.92604 -2.778125,0 -2.778125,0 -2.778125,-0.92604 0,-0.92604 0,-0.92604 1.852083,-0.92604 h 1.852083 v -1.85208 -1.85209 h 1.852084 1.852083 v 1.85209 c 0,1.85208 0,1.85208 0.926042,1.85208 0.881944,0 0.926041,-0.0441 0.926041,-0.92604 0,-0.88195 0.0441,-0.92604 0.926042,-0.92604 0.881944,0 0.926042,-0.0441 0.926042,-0.92604 0,-0.92605 0,-0.92605 1.852083,-0.92605 h 1.852084 v -1.85208 c 0,-1.85208 0,-1.85208 0.926041,-1.85208 0.881945,0 0.926042,-0.0441 0.926042,-0.92604 0,-0.88195 -0.0441,-0.92605 -0.926042,-0.92605 -0.881944,0 -0.926041,-0.0441 -0.926041,-0.92604 0,-0.88194 0.0441,-0.92604 0.926041,-0.92604 0.881945,0 0.926042,0.0441 0.926042,0.92604 0,0.88195 0.0441,0.92604 0.926042,0.92604 0.881944,0 0.926041,-0.0441 0.926041,-0.92604 0,-0.88194 0.0441,-0.92604 0.926042,-0.92604 0.926042,0 0.926042,0 0.926042,2.77813 0,2.77812 0,2.77812 0.926041,2.77812 0.881945,0 0.926042,-0.0441 0.926042,-0.92604 0,-0.88195 0.0441,-0.92604 0.926042,-0.92604 0.881943,0 0.926041,0.0441 0.926041,0.92604 0,0.88194 0.0441,0.92604 0.926042,0.92604 0.926042,0 0.926042,0 0.926042,-1.85208 v -1.85209 H 44.92247 43.070387 v -1.85208 c 0,-1.85208 0,-1.85208 -0.926042,-1.85208 -0.881944,0 -0.926041,-0.0441 -0.926041,-0.92604 0,-0.88195 -0.0441,-0.92605 -0.926042,-0.92605 -0.926042,0 -0.926042,0 -0.926042,-1.85208 0,-1.85208 0,-1.85208 0.926042,-1.85208 0.881944,0 0.926042,0.0441 0.926042,0.92604 0,0.88194 0.0441,0.92604 0.926041,0.92604 0.881945,0 0.926042,-0.0441 0.926042,-0.92604 0,-0.88195 0.0441,-0.92604 0.926042,-0.92604 0.881943,0 0.926041,0.0441 0.926041,0.92604 0,0.88194 0.0441,0.92604 0.926042,0.92604 0.881944,0 0.926042,0.0441 0.926042,0.92604 0,0.88195 0.0441,0.92604 0.926041,0.92604 0.881944,0 0.926042,0.0441 0.926042,0.92605 0,0.88194 0.0441,0.92604 0.926042,0.92604 0.926041,0 0.926041,0 0.926041,-2.77813 0,-2.77812 0,-2.77812 0.926042,-2.77812 0.926042,0 0.926042,0 0.926042,1.85208 0,1.85208 0,1.85208 0.926041,1.85208 0.881944,0 0.926042,0.0441 0.926042,0.92605 0,0.88194 0.0441,0.92604 0.926042,0.92604 0.926041,0 0.926041,0 0.926041,-1.85209 0,-1.85208 0,-1.85208 0.926042,-1.85208 0.881944,0 0.926042,-0.0441 0.926042,-0.92604 0,-0.92604 0,-0.92604 1.852083,-0.92604 h 1.852083 v 1.85208 c 0,1.85208 0,1.85208 -0.926041,1.85208 -0.881944,0 -0.926042,0.0441 -0.926042,0.92605 0,0.92604 0,0.92604 -1.852083,0.92604 -1.852084,0 -1.852084,0 -1.852084,0.92604 0,0.92604 0,0.92604 2.778125,0.92604 2.778125,0 2.778125,0 2.778125,0.92604 0,0.88195 0.0441,0.92604 0.926042,0.92604 h 0.926042 v -4.6302 -4.63021 h 1.852083 c 1.852083,0 1.852083,0 1.852083,0.92604 0,0.88194 -0.0441,0.92604 -0.926041,0.92604 -0.926042,0 -0.926042,0 -0.926042,3.70417 0,3.70416 0,3.70416 0.926042,3.70416 0.926041,0 0.926041,0 0.926041,1.85209 0,1.85208 0,1.85208 -0.926041,1.85208 -0.881944,0 -0.926042,0.0441 -0.926042,0.92604 0,0.92604 0,0.92604 -1.852083,0.92604 -1.852084,0 -1.852084,0 -1.852084,0.92605 0,0.88194 -0.0441,0.92604 -0.926041,0.92604 -0.881944,0 -0.926042,0.0441 -0.926042,0.92604 0,0.92604 0,0.92604 1.852083,0.92604 1.852084,0 1.852084,0 1.852084,-0.92604 0,-0.88195 0.0441,-0.92604 0.926041,-0.92604 0.926042,0 0.926042,0 0.926042,1.85208 v 1.85208 h 1.852083 c 1.852084,0 1.852084,0 1.852084,-0.92604 0,-0.88194 -0.0441,-0.92604 -0.926042,-0.92604 -0.926042,0 -0.926042,0 -0.926042,-1.85208 v -1.85209 h 1.852084 1.852083 v 2.77813 2.77812 h 2.778125 2.778125 v 1.85209 c 0,1.85208 0,1.85208 0.926042,1.85208 0.926042,0 0.926042,0 0.926042,1.85208 0,1.85209 0,1.85209 -0.926042,1.85209 -0.926042,0 -0.926042,0 -0.926042,1.85208 v 1.85208 h 1.852084 c 1.852083,0 1.852083,0 1.852083,0.92605 0,0.88194 -0.0441,0.92604 -0.926042,0.92604 -0.881943,0 -0.926041,0.0441 -0.926041,0.92604 0,0.88194 0.0441,0.92604 0.926041,0.92604 0.881944,0 0.926042,0.0441 0.926042,0.92604 0,0.88195 0.0441,0.92604 0.926042,0.92604 0.926041,0 0.926041,0 0.926041,3.70417 0,3.70417 0,3.70417 -0.926041,3.70417 -0.881944,0 -0.926042,0.0441 -0.926042,0.92604 0,0.88194 -0.0441,0.92604 -0.926042,0.92604 -0.881943,0 -0.926041,-0.0441 -0.926041,-0.92604 0,-0.88194 0.0441,-0.92604 0.926041,-0.92604 0.881944,0 0.926042,-0.0441 0.926042,-0.92604 0,-0.92605 0,-0.92605 -1.852083,-0.92605 -1.852084,0 -1.852084,0 -1.852084,0.92605 0,0.88194 -0.0441,0.92604 -0.926041,0.92604 -0.926042,0 -0.926042,0 -0.926042,2.77812 v 2.77813 h 3.704167 c 3.704166,0 3.704166,0 3.704166,0.92604 0,0.88194 -0.0441,0.92604 -0.926041,0.92604 -0.881944,0 -0.926042,0.0441 -0.926042,0.92604 0,0.92604 0,0.92604 -3.704167,0.92604 -3.704166,0 -3.704166,0 -3.704166,0.92605 0,0.88194 -0.0441,0.92604 -0.926042,0.92604 -0.881944,0 -0.926042,0.0441 -0.926042,0.92604 0,0.88194 -0.0441,0.92604 -0.926041,0.92604 -0.881944,0 -0.926042,0.0441 -0.926042,0.92604 0,0.92604 0,0.92604 -1.852084,0.92604 -1.852083,0 -1.852083,0 -1.852083,0.92605 0,0.88194 -0.0441,0.92604 -0.926042,0.92604 -0.926041,0 -0.926041,0 -0.926041,-1.85209 0,-1.85208 0,-1.85208 -0.926042,-1.85208 -0.881943,0 -0.926042,0.0441 -0.926042,0.92604 0,0.92604 0,0.92604 -2.778125,0.92604 -2.778125,0 -2.778125,0 -2.778125,0.92605 0,0.88194 -0.0441,0.92604 -0.926041,0.92604 -0.926042,0 -0.926042,0 -0.926042,-2.77813 0,-2.77812 0,-2.77812 -0.926042,-2.77812 -0.926041,0 -0.926041,0 -0.926041,2.77812 v 2.77813 H 50.47872 c -1.852083,0 -1.852083,0 -1.852083,-0.92604 z m 12.964583,-3.70417 c 0,-0.92604 0,-0.92604 -2.778125,-0.92604 -2.778125,0 -2.778125,0 -2.778125,0.92604 0,0.92604 0,0.92604 2.778125,0.92604 2.778125,0 2.778125,0 2.778125,-0.92604 z m 9.260417,-1.85208 c 0,-0.92605 0,-0.92605 -1.852083,-0.92605 -1.852084,0 -1.852084,0 -1.852084,0.92605 0,0.92604 0,0.92604 1.852084,0.92604 1.852083,0 1.852083,0 1.852083,-0.92604 z m -27.78125,-1.85209 c 0,-0.88194 0.0441,-0.92604 0.926042,-0.92604 0.881943,0 0.926041,-0.0441 0.926041,-0.92604 0,-0.92604 0,-0.92604 -1.852083,-0.92604 h -1.852083 v 1.85208 c 0,1.85208 0,1.85208 0.926041,1.85208 0.881945,0 0.926042,-0.0441 0.926042,-0.92604 z m 22.225,-1.85208 c 0,-0.88194 -0.0441,-0.92604 -0.926042,-0.92604 -0.881943,0 -0.926041,0.0441 -0.926041,0.92604 0,0.88194 0.0441,0.92604 0.926041,0.92604 0.881944,0 0.926042,-0.0441 0.926042,-0.92604 z m 7.408334,-1.85208 v -2.77813 H 69.925596 67.14747 v 2.77813 2.77812 h 2.778126 2.778125 z m -3.704167,0 c 0,-0.88195 0.0441,-0.92605 0.926042,-0.92605 0.881943,0 0.926041,0.0441 0.926041,0.92605 0,0.88194 -0.0441,0.92604 -0.926041,0.92604 -0.881944,0 -0.926042,-0.0441 -0.926042,-0.92604 z M 39.36622,155.76399 c 0,-0.88194 0.0441,-0.92604 0.926042,-0.92604 0.881944,0 0.926042,0.0441 0.926042,0.92604 0,0.88195 0.0441,0.92604 0.926041,0.92604 0.881945,0 0.926042,-0.0441 0.926042,-0.92604 0,-0.88194 -0.0441,-0.92604 -0.926042,-0.92604 -0.881944,0 -0.926041,-0.0441 -0.926041,-0.92604 0,-0.88194 0.0441,-0.92604 0.926041,-0.92604 0.881945,0 0.926042,-0.0441 0.926042,-0.92604 0,-0.88195 -0.0441,-0.92605 -0.926042,-0.92605 -0.881944,0 -0.926041,0.0441 -0.926041,0.92605 0,0.88194 -0.0441,0.92604 -0.926042,0.92604 -0.881944,0 -0.926042,0.0441 -0.926042,0.92604 0,0.88194 -0.0441,0.92604 -0.926041,0.92604 -0.881945,0 -0.926042,0.0441 -0.926042,0.92604 0,0.88195 0.0441,0.92604 0.926042,0.92604 0.881944,0 0.926041,-0.0441 0.926041,-0.92604 z m -5.55625,-3.70416 c 0,-0.92605 0,-0.92605 -2.778125,-0.92605 -2.778125,0 -2.778125,0 -2.778125,0.92605 0,0.92604 0,0.92604 2.778125,0.92604 2.778125,0 2.778125,0 2.778125,-0.92604 z m 3.704167,0 c 0,-0.88195 -0.0441,-0.92605 -0.926042,-0.92605 -0.881944,0 -0.926041,0.0441 -0.926041,0.92605 0,0.88194 0.0441,0.92604 0.926041,0.92604 0.881945,0 0.926042,-0.0441 0.926042,-0.92604 z m 35.189584,0 c 0,-0.88195 0.0441,-0.92605 0.926041,-0.92605 0.881944,0 0.926042,-0.0441 0.926042,-0.92604 0,-0.92604 0,-0.92604 2.778125,-0.92604 h 2.778125 v -1.85208 c 0,-1.85209 0,-1.85209 -0.926042,-1.85209 -0.881943,0 -0.926041,-0.0441 -0.926041,-0.92604 0,-0.88194 -0.0441,-0.92604 -0.926042,-0.92604 -0.926042,0 -0.926042,0 -0.926042,-1.85208 0,-1.85209 0,-1.85209 -0.926041,-1.85209 -0.881944,0 -0.926042,0.0441 -0.926042,0.92605 0,0.88194 -0.0441,0.92604 -0.926042,0.92604 -0.881943,0 -0.926041,0.0441 -0.926041,0.92604 0,0.88194 -0.0441,0.92604 -0.926042,0.92604 -0.881944,0 -0.926042,0.0441 -0.926042,0.92604 0,0.88195 -0.0441,0.92604 -0.926041,0.92604 -0.926042,0 -0.926042,0 -0.926042,1.85209 v 1.85208 h 1.852083 c 1.852084,0 1.852084,0 1.852084,0.92604 0,0.92604 0,0.92604 -1.852084,0.92604 -1.852083,0 -1.852083,0 -1.852083,0.92605 0,0.92604 0,0.92604 1.852083,0.92604 1.852084,0 1.852084,0 1.852084,-0.92604 z m -1.852084,-5.55625 c 0,-0.88195 0.0441,-0.92605 0.926042,-0.92605 0.881943,0 0.926042,-0.0441 0.926042,-0.92604 0,-0.88194 0.0441,-0.92604 0.926041,-0.92604 0.881944,0 0.926042,0.0441 0.926042,0.92604 0,0.92604 0,0.92604 1.852083,0.92604 1.852084,0 1.852084,0 1.852084,0.92605 0,0.92604 0,0.92604 -1.852084,0.92604 -1.852083,0 -1.852083,0 -1.852083,-0.92604 0,-0.88195 -0.0441,-0.92605 -0.926042,-0.92605 -0.881943,0 -0.926041,0.0441 -0.926041,0.92605 0,0.88194 -0.0441,0.92604 -0.926042,0.92604 -0.881944,0 -0.926042,-0.0441 -0.926042,-0.92604 z m -33.3375,-1.85209 c 0,-0.88194 -0.0441,-0.92604 -0.926042,-0.92604 -0.881944,0 -0.926041,0.0441 -0.926041,0.92604 0,0.88195 0.0441,0.92604 0.926041,0.92604 0.881945,0 0.926042,-0.0441 0.926042,-0.92604 z m -1.852083,-3.70416 c 0,-0.92605 0,-0.92605 -1.852084,-0.92605 -1.852083,0 -1.852083,0 -1.852083,0.92605 0,0.92604 0,0.92604 1.852083,0.92604 1.852084,0 1.852084,0 1.852084,-0.92604 z m 37.041667,-3.70417 c 0,-0.92604 0,-0.92604 1.852083,-0.92604 h 1.852083 v -1.85209 c 0,-1.85208 0,-1.85208 -0.926041,-1.85208 -0.881944,0 -0.926042,-0.0441 -0.926042,-0.92604 0,-0.88195 -0.0441,-0.92604 -0.926042,-0.92604 -0.881943,0 -0.926041,0.0441 -0.926041,0.92604 0,0.88194 0.0441,0.92604 0.926041,0.92604 0.881944,0 0.926042,0.0441 0.926042,0.92604 0,0.92604 0,0.92604 -1.852083,0.92604 h -1.852084 v -1.85208 -1.85208 H 68.999554 67.14747 v 2.77812 c 0,2.77813 0,2.77813 0.926042,2.77813 0.881944,0 0.926042,0.0441 0.926042,0.92604 0,0.92604 0,0.92604 1.852083,0.92604 1.852084,0 1.852084,0 1.852084,-0.92604 z M 33.80997,133.53899 c 0,-0.88194 -0.0441,-0.92604 -0.926042,-0.92604 -0.881944,0 -0.926041,0.0441 -0.926041,0.92604 0,0.88195 0.0441,0.92604 0.926041,0.92604 0.881945,0 0.926042,-0.0441 0.926042,-0.92604 z m 9.260417,-7.40833 c 0,-0.88195 0.0441,-0.92604 0.926042,-0.92604 0.881943,0 0.926041,-0.0441 0.926041,-0.92604 0,-0.88195 -0.0441,-0.92605 -0.926041,-0.92605 -0.881945,0 -0.926042,0.0441 -0.926042,0.92605 0,0.92604 0,0.92604 -1.852083,0.92604 -1.852084,0 -1.852084,0 -1.852084,-0.92604 0,-0.88195 0.0441,-0.92605 0.926042,-0.92605 0.881944,0 0.926042,-0.0441 0.926042,-0.92604 0,-0.88194 -0.0441,-0.92604 -0.926042,-0.92604 -0.881944,0 -0.926042,-0.0441 -0.926042,-0.92604 0,-0.88195 -0.0441,-0.92604 -0.926041,-0.92604 -0.881945,0 -0.926042,0.0441 -0.926042,0.92604 0,0.88194 0.0441,0.92604 0.926042,0.92604 0.881944,0 0.926041,0.0441 0.926041,0.92604 0,0.88195 -0.0441,0.92604 -0.926041,0.92604 -0.881945,0 -0.926042,0.0441 -0.926042,0.92605 0,0.88194 0.0441,0.92604 0.926042,0.92604 0.881944,0 0.926041,0.0441 0.926041,0.92604 0,0.92604 0,0.92604 1.852084,0.92604 1.852083,0 1.852083,0 1.852083,-0.92604 z m 11.1125,0 c 0,-0.88195 -0.0441,-0.92604 -0.926042,-0.92604 -0.881943,0 -0.926041,-0.0441 -0.926041,-0.92604 0,-0.88195 0.0441,-0.92605 0.926041,-0.92605 0.926042,0 0.926042,0 0.926042,-1.85208 0,-1.85208 0,-1.85208 -0.926042,-1.85208 -0.926041,0 -0.926041,0 -0.926041,-1.85209 0,-1.85208 0,-1.85208 -0.926042,-1.85208 -0.926042,0 -0.926042,0 -0.926042,1.85208 0,1.85209 0,1.85209 -0.926041,1.85209 -0.926042,0 -0.926042,0 -0.926042,1.85208 0,1.85208 0,1.85208 0.926042,1.85208 0.926041,0 0.926041,0 0.926041,1.85209 v 1.85208 h 1.852084 c 1.852083,0 1.852083,0 1.852083,-0.92604 z m -3.704167,-5.55625 c 0,-0.88195 0.0441,-0.92604 0.926042,-0.92604 0.881944,0 0.926042,0.0441 0.926042,0.92604 0,0.88194 -0.0441,0.92604 -0.926042,0.92604 -0.881944,0 -0.926042,-0.0441 -0.926042,-0.92604 z m 7.408334,3.70417 c 0,-0.88195 -0.0441,-0.92605 -0.926042,-0.92605 -0.881944,0 -0.926042,0.0441 -0.926042,0.92605 0,0.88194 0.0441,0.92604 0.926042,0.92604 0.881944,0 0.926042,-0.0441 0.926042,-0.92604 z m 3.704166,-3.70417 v -2.77813 H 58.813095 56.03497 v 1.85209 c 0,1.85208 0,1.85208 0.926042,1.85208 0.881944,0 0.926042,-0.0441 0.926042,-0.92604 0,-0.88195 0.0441,-0.92604 0.926041,-0.92604 0.926042,0 0.926042,0 0.926042,1.85208 0,1.85208 0,1.85208 0.926042,1.85208 0.926041,0 0.926041,0 0.926041,-2.77812 z m 3.704167,-0.92604 c 0,-1.85209 0,-1.85209 -0.926042,-1.85209 -0.926041,0 -0.926041,0 -0.926041,1.85209 0,1.85208 0,1.85208 0.926041,1.85208 0.926042,0 0.926042,0 0.926042,-1.85208 z m -16.66875,-2.77813 c 0,-0.88194 -0.0441,-0.92604 -0.926042,-0.92604 -0.881943,0 -0.926041,0.0441 -0.926041,0.92604 0,0.88195 0.0441,0.92604 0.926041,0.92604 0.881944,0 0.926042,-0.0441 0.926042,-0.92604 z m -1.852083,-3.70416 c 0,-0.88195 -0.0441,-0.92605 -0.926042,-0.92605 -0.881944,0 -0.926042,-0.0441 -0.926042,-0.92604 0,-0.88194 -0.0441,-0.92604 -0.926041,-0.92604 -0.926042,0 -0.926042,0 -0.926042,1.85208 v 1.85209 h 1.852083 c 1.852084,0 1.852084,0 1.852084,-0.92604 z m 24.077083,55.5625 c 0,-0.92605 0,-0.92605 1.852084,-0.92605 h 1.852083 v -1.85208 -1.85208 h 1.852083 c 1.852084,0 1.852084,0 1.852084,0.92604 0,0.88194 -0.0441,0.92604 -0.926042,0.92604 -0.926042,0 -0.926042,0 -0.926042,1.85208 v 1.85209 h -2.778125 c -2.778125,0 -2.778125,0 -2.778125,-0.92604 z m 9.260417,-1.85209 c 0,-0.88194 0.0441,-0.92604 0.926042,-0.92604 0.881943,0 0.926041,0.0441 0.926041,0.92604 0,0.88195 -0.0441,0.92604 -0.926041,0.92604 -0.881944,0 -0.926042,-0.0441 -0.926042,-0.92604 z m -44.45,-2.77812 c 0,-1.85209 0,-1.85209 0.926041,-1.85209 0.926042,0 0.926042,0 0.926042,1.85209 0,1.85208 0,1.85208 -0.926042,1.85208 -0.926041,0 -0.926041,0 -0.926041,-1.85208 z m 11.1125,-13.89063 c 0,-0.88194 0.0441,-0.92604 0.926041,-0.92604 0.881944,0 0.926042,0.0441 0.926042,0.92604 0,0.88195 -0.0441,0.92604 -0.926042,0.92604 -0.881943,0 -0.926041,-0.0441 -0.926041,-0.92604 z m 9.260416,0 c 0,-0.88194 0.0441,-0.92604 0.926042,-0.92604 0.881944,0 0.926042,0.0441 0.926042,0.92604 0,0.88195 -0.0441,0.92604 -0.926042,0.92604 -0.881944,0 -0.926042,-0.0441 -0.926042,-0.92604 z m -8.004725,-4.90451 c -1.490962,-0.37083 -3.465338,-1.44688 -4.436264,-2.41781 -2.784311,-2.78431 -1.777692,-7.0882 2.122239,-9.07384 1.86648,-0.95031 3.833427,-1.27558 6.898939,-1.14086 3.159038,0.13883 5.125641,0.75993 6.600468,2.08456 0.506212,0.45466 0.73497,0.69888 0.508349,0.54271 -1.422363,-0.98022 -7.731127,-1.47822 -10.165331,-0.80243 -1.559399,0.43293 -2.956703,1.95363 -3.183255,3.46438 -0.296754,1.9789 0.06841,3.38034 1.167045,4.47898 1.204646,1.20464 2.417993,1.54776 5.47986,1.54964 2.814166,0.002 4.83898,-0.33449 6.319967,-1.04941 l 1.058333,-0.51089 -1.031136,0.90874 c -1.731786,1.52623 -3.517874,2.05971 -7.170947,2.14187 -1.74625,0.0393 -3.621969,-0.0398 -4.168267,-0.17564 z m 4.962017,-2.60275 c -0.436562,-0.11518 -1.210469,-0.4377 -1.719792,-0.7167 -0.926041,-0.50729 -0.926041,-0.50729 2.248959,-0.65087 3.189449,-0.14423 4.164036,-0.40466 4.466788,-1.19362 0.318532,-0.83008 0.156504,-1.97701 -0.350988,-2.4845 -0.689113,-0.68911 -1.797526,-0.86387 -4.831636,-0.76177 -1.398431,0.0471 -2.485985,-0.005 -2.416786,-0.11666 0.0692,-0.11122 0.623755,-0.46303 1.232344,-0.7818 1.700533,-0.8907 4.862547,-0.82581 6.722841,0.13798 2.996536,1.55245 2.883334,4.43631 -0.23662,6.02799 -1.140388,0.58179 -3.866017,0.8695 -5.11511,0.53995 z m 27.119792,-5.45732 c 0,-0.88194 0.0441,-0.92604 0.926042,-0.92604 0.881943,0 0.926041,0.0441 0.926041,0.92604 0,0.88194 -0.0441,0.92604 -0.926041,0.92604 -0.881944,0 -0.926042,-0.0441 -0.926042,-0.92604 z m -59.266667,-5.55625 c 0,-0.88195 0.0441,-0.92604 0.926041,-0.92604 0.881945,0 0.926042,0.0441 0.926042,0.92604 0,0.88194 -0.0441,0.92604 -0.926042,0.92604 -0.881944,0 -0.926041,-0.0441 -0.926041,-0.92604 z m 59.266667,-1.85208 c 0,-0.88195 -0.0441,-0.92605 -0.926042,-0.92605 -0.926041,0 -0.926041,0 -0.926041,-1.85208 v -1.85208 h 1.852083 1.852083 v 2.77812 c 0,2.77813 0,2.77813 -0.926041,2.77813 -0.881944,0 -0.926042,-0.0441 -0.926042,-0.92604 z m -7.408333,-5.55625 c 0,-0.88195 0.0441,-0.92605 0.926041,-0.92605 0.881944,0 0.926042,0.0441 0.926042,0.92605 0,0.88194 -0.0441,0.92604 -0.926042,0.92604 -0.881943,0 -0.926041,-0.0441 -0.926041,-0.92604 z m -51.858334,-9.26042 v -6.48229 h 6.482291 6.482292 v 6.48229 6.48229 h -6.482292 -6.482291 z m 11.1125,0 v -4.63021 H 27.327678 22.69747 v 4.63021 4.63021 h 4.630208 4.630209 z m -7.408334,0 v -2.77813 h 2.778125 2.778125 v 2.77813 2.77812 h -2.778125 -2.778125 z m 44.450001,0 v -6.48229 h 6.482292 6.482291 v 6.48229 6.48229 h -6.482291 -6.482292 z m 11.1125,0 v -4.63021 h -4.630208 -4.630209 v 4.63021 4.63021 h 4.630209 4.630208 z m -7.408333,0 v -2.77813 h 2.778125 2.778125 v 2.77813 2.77812 h -2.778125 -2.778125 z"
         id="path1428" />
    </g>
  </g>
</svg>
